<?xml version="1.0" standalone="no"?>
<!DOCTYPE svg PUBLIC "-//W3C//DTD SVG 20010904//EN"
 "http://www.w3.org/TR/2001/REC-SVG-20010904/DTD/svg10.dtd">
<svg version="1.0" xmlns="http://www.w3.org/2000/svg"
 width="220.000000pt" height="220.000000pt" viewBox="0 0 220.000000 220.000000"
 preserveAspectRatio="xMidYMid meet">
<metadata>
Created by potrace 1.11, written by Peter Selinger 2001-2013
</metadata>
<g transform="translate(0.000000,220.000000) scale(0.100000,-0.100000)"
fill="#000000" stroke="none">
<path d="M930 2045 c-102 -28 -232 -100 -308 -170 -116 -108 -198 -292 -227
-509 -20 -157 -19 -260 5 -399 28 -159 51 -231 125 -383 56 -114 75 -143 150
-221 46 -50 116 -112 154 -138 67 -46 70 -49 76 -96 6 -43 10 -49 31 -49 20 0
24 -5 24 -30 0 -16 5 -30 10 -30 6 0 10 13 10 29 0 32 13 38 100 43 l45 3 3
-38 3 -37 137 0 137 0 2 61 c2 33 5 64 8 70 4 5 36 9 73 9 37 0 79 6 93 14 18
9 49 12 102 8 61 -4 82 -1 102 12 l25 17 -62 43 c-50 33 -69 55 -93 101 -27
53 -30 70 -33 169 -3 95 0 130 27 246 16 74 37 158 45 185 28 91 49 300 43
430 -10 205 -63 346 -172 458 -76 78 -165 141 -260 181 -63 27 -82 30 -195 33
-89 2 -141 -2 -180 -12z m71 -360 c50 -63 237 -184 332 -215 47 -15 57 -7 30
23 -23 25 -63 91 -63 102 0 4 19 -10 43 -32 58 -54 126 -99 200 -134 35 -16
76 -42 91 -58 27 -28 28 -31 17 -79 -5 -27 -15 -112 -21 -188 -8 -88 -18 -152
-28 -174 -34 -70 -214 -159 -338 -168 -177 -11 -414 73 -470 167 -16 28 -23
31 -67 31 -112 0 -197 91 -197 211 0 60 16 96 51 115 43 22 74 17 106 -16 15
-16 31 -30 35 -30 4 0 10 20 14 45 3 25 17 60 30 78 63 86 116 170 158 255 25
50 49 92 52 92 3 0 15 -11 25 -25z m179 -945 c15 0 18 -8 17 -50 -1 -27 -4
-50 -7 -50 -3 0 -30 13 -60 28 -44 23 -56 34 -58 57 -4 28 -4 28 44 21 26 -3
55 -6 64 -6z m164 -365 c-22 -42 -12 -68 30 -73 20 -3 26 -9 26 -28 0 -47 -70
-26 -89 27 -16 45 -14 54 15 89 33 39 43 31 18 -15z m36 -25 c0 -23 -25 -27
-33 -6 -7 16 1 26 20 26 7 0 13 -9 13 -20z m-40 -115 c0 -23 -18 -27 -29 -7
-6 11 -8 22 -5 25 10 9 34 -4 34 -18z m60 -20 c0 -10 -9 -14 -25 -13 -14 1
-25 8 -25 15 0 7 11 13 25 13 15 0 25 -6 25 -15z"/>
<path d="M1046 1474 c-25 -21 -44 -39 -41 -42 2 -3 21 8 42 24 20 16 41 32 47
36 6 4 8 9 5 12 -3 4 -27 -10 -53 -30z"/>
<path d="M1432 1460 c4 -14 68 -55 68 -43 0 4 -16 18 -36 31 -20 13 -35 19
-32 12z"/>
<path d="M1005 1319 c-128 -12 -138 -19 -19 -12 100 5 208 21 139 21 -16 -1
-70 -5 -120 -9z"/>
<path d="M1420 1310 c30 -5 82 -8 115 -7 l60 0 -65 7 c-36 4 -87 8 -115 7
l-50 0 55 -7z"/>
<path d="M995 1285 c-66 -8 -123 -14 -127 -14 -13 -1 -9 -39 7 -77 28 -68 169
-99 243 -54 37 22 75 96 70 133 -4 28 -31 30 -193 12z m175 -32 c0 -59 -68
-123 -129 -123 -25 0 -26 6 -6 55 9 20 13 46 9 57 -9 28 10 38 74 38 50 0 52
-1 52 -27z"/>
<path d="M1350 1271 c0 -29 42 -82 80 -102 43 -23 98 -24 129 -3 28 20 54 79
46 105 -6 17 -17 19 -131 19 -114 0 -124 -1 -124 -19z m238 -22 c4 -33 -30
-76 -69 -84 -39 -9 -44 -3 -24 29 12 17 15 35 10 56 l-7 31 44 -3 c38 -3 43
-6 46 -29z"/>
<path d="M625 1207 c34 -20 40 -27 37 -52 -7 -62 25 -135 60 -135 6 0 -1 11
-15 25 -36 37 -48 115 -16 115 5 0 23 -25 40 -55 32 -58 45 -70 33 -33 -20 64
-118 158 -163 158 -9 0 2 -11 24 -23z"/>
<path d="M1288 1093 c6 -2 18 -2 25 0 6 3 1 5 -13 5 -14 0 -19 -2 -12 -5z"/>
<path d="M1198 890 c28 -23 109 -37 125 -21 8 8 0 11 -31 11 -24 0 -59 7 -80
15 l-37 15 23 -20z"/>
</g>
</svg>
